#!OML:ASF C:\ViconDB\ViconDB\414\Spring2016\041811\Spring2016.ASF
:FULLY-SPECIFIED
:DEGREES
261
root 7.70152 18.6642 -10.6821 364.244 -2.58574 362.226
lowerback 2.48754 8.15919 -7.51826
upperback -2.56528 10.3443 -5.66914
thorax -4.32904 5.26279 -2.44773
lowerneck -18.2652 -2.67956 -13.1921
upperneck 21.5287 -4.85317 20.1814
head 10.8057 -1.01029 9.13561
rclavicle 8.36883e-014 -6.36111e-015
rhumerus -1.15622 -21.3214 -16.4406
rradius 29.2129
rwrist 41.7332
rhand -26.1837 -13.6699
rfingers 7.12502
rthumb 0.368365 -43.6493
lclavicle 8.36883e-014 -6.36111e-015
lhumerus -51.1253 -7.95513 0.784839
lradius 19.2232
lwrist -6.99641
lhand -22.7504 24.811
lfingers 7.12502
lthumb 3.68413 54.7589
rfemur -30.8455 -198.569 -0.969147
rtibia 33.5998
rfoot -2.51094 -52.5799
rtoes 5.59288
lfemur -3.60642 -26.6111 -5.24682
ltibia 35.1725
lfoot -9.90935 11.381
ltoes -5.12719
262
root 7.6647 18.6562 -10.7181 364.831 -4.43007 362.697
lowerback 3.03509 8.04062 -7.92033
upperback -2.39744 10.1048 -5.79446
thorax -4.50432 5.14841 -2.4213
lowerneck -18.6645 -2.88039 -13.598
upperneck 20.8504 -4.95545 20.4137
head 10.6823 -1.0632 9.24881
rclavicle -1.21259e-014 -3.18055e-015
rhumerus -0.901928 -22.5913 -15.9376
rradius 29.0937
rwrist 42.4315
rhand -26.7152 -12.9839
rfingers 7.12502
rthumb -0.144984 -42.9636
lclavicle -1.21259e-014 -3.18055e-015
lhumerus -50.8633 -7.7522 1.0434
lradius 19.6201
lwrist -6.13596
lhand -23.6942 25.0584
lfingers 7.12502
lthumb 2.77267 55.0201
rfemur -29.5704 -199.298 -1.5984
rtibia 33.6521
rfoot -5.87234 -53.1939
rtoes 7.8451
lfemur -3.84108 -28.6009 -5.81987
ltibia 33.6387
lfoot -11.7251 12.3796
ltoes -6.55188
263
root 7.64633 18.6604 -10.7543 365.578 -5.85496 362.851
lowerback 3.49008 7.80765 -7.99062
upperback -2.20199 9.74862 -5.75848
thorax -4.56395 4.96958 -2.36542
lowerneck -19.3126 -3.12944 -14.1204
upperneck 20.3061 -5.06895 20.6219
head 10.6631 -1.11911 9.39039
rclavicle 3.91606e-014 2.22639e-014
rhumerus -0.830428 -23.5447 -15.3587
rradius 29.3133
rwrist 41.5811
rhand -26.786 -13.0194
rfingers 7.12502
rthumb -0.213366 -42.999
lclavicle 3.91606e-014 2.22639e-014
lhumerus -50.6258 -7.58613 1.82158
lradius 20.0639
lwrist -5.08486
lhand -24.7554 25.4926
lfingers 7.12502
lthumb 1.74779 55.4651
rfemur -28.107 -200.964 -1.93232
rtibia 33.3987
rfoot -9.82714 -54.0712
rtoes 9.89565
lfemur -4.77656 -30.0902 -5.76258
ltibia 32.1615
lfoot -12.9984 12.44
ltoes -6.99263
264
root 7.64413 18.6834 -10.7768 366.544 -6.99582 362.871
lowerback 3.69279 7.50445 -7.74449
upperback -2.07541 9.34334 -5.77481
thorax -4.49063 4.7595 -2.48491
lowerneck -19.5577 -3.43806 -14.4515
upperneck 19.526 -5.28636 20.6359
head 10.4908 -1.24599 9.37024
rclavicle 1.47101e-013 -3.97569e-014
rhumerus -1.09434 -24.9731 -14.8523
rradius 29.4149
rwrist 41.1978
rhand -27.0386 -13.3186
rfingers 7.12502
rthumb -0.457371 -43.2979
lclavicle 1.47101e-013 -3.97569e-014
lhumerus -50.247 -7.56164 2.76767
lradius 20.5102
lwrist -4.21599
lhand -25.8569 25.7529
lfingers 7.12502
lthumb 0.683926 55.7316
rfemur -26.3924 -203.037 -1.99484
rtibia 32.8777
rfoot -14.0302 -54.8705
rtoes 10.3382
lfemur -6.37674 -31.354 -5.41729
ltibia 30.8355
lfoot -14.2142 11.9396
ltoes -7.54316
265
root 7.65565 18.7206 -10.7921 367.786 -7.96362 362.532
lowerback 3.71593 7.30785 -7.40893
upperback -2.00886 9.11204 -5.54671
thorax -4.4116 4.63825 -2.39773
lowerneck -19.7835 -3.90591 -14.9816
upperneck 18.6294 -5.65907 20.6799
head 10.3172 -1.45744 9.3702
rclavicle 3.16068e-014 -1.09729e-013
rhumerus -1.85336 -26.5735 -13.8148
rradius 29.4448
rwrist 40.5996
rhand -27.1976 -13.1169
rfingers 7.12502
rthumb -0.610923 -43.0958
lclavicle 3.16068e-014 -1.09729e-013
lhumerus -49.5221 -7.29032 3.95365
lradius 20.9828
lwrist -3.4234
lhand -26.7081 25.533
lfingers 7.12502
lthumb -0.138119 55.5127
rfemur -24.3179 -206.096 -1.53851
rtibia 32.0436
rfoot -19.5706 -55.7662
rtoes 10.4758
lfemur -8.58673 -31.9394 -4.53175
ltibia 29.6576
lfoot -15.2597 10.7771
ltoes -7.80653
266
root 7.67611 18.7687 -10.8009 369.025 -8.84501 362.184
lowerback 3.61913 7.04942 -6.77231
upperback -1.83256 8.83073 -5.53623
thorax -4.06836 4.47999 -2.65761
lowerneck -20.0714 -4.21929 -15.0595
upperneck 17.6294 -5.98596 21.0007
head 10.1144 -1.5818 9.40118
rclavicle -4.19436e-014 9.54166e-015
rhumerus -3.1395 -27.0931 -12.844
rradius 29.8553
rwrist 38.5677
rhand -27.2216 -13.5595
rfingers 7.12502
rthumb -0.63412 -43.5383
lclavicle -4.19436e-014 9.54166e-015
lhumerus -48.7634 -7.69193 5.494
lradius 21.4677
lwrist -2.02135
lhand -27.3225 25.249
lfingers 7.12502
lthumb -0.731538 55.2275
rfemur -22.1424 -209.828 -0.952933
rtibia 30.9707
rfoot -26.1279 -56.5663
rtoes 10.3054
lfemur -11.1094 -31.9307 -3.68961
ltibia 28.698
lfoot -16.3626 9.03912
ltoes -8.49859
267
root 7.71049 18.8264 -10.8109 370.136 -9.66355 361.877
lowerback 3.6827 6.75733 -6.08338
upperback -1.58443 8.49331 -5.52744
thorax -3.73915 4.29364 -2.96357
lowerneck -20.3135 -4.5319 -14.9298
upperneck 16.5889 -6.2873 20.9616
head 9.8619 -1.7196 9.24576
rclavicle 1.96797e-014 -6.52014e-014
rhumerus -4.26092 -27.8666 -12.0613
rradius 30.0649
rwrist 37.4553
rhand -27.0153 -14.1246
rfingers 7.12502
rthumb -0.434846 -44.1039
lclavicle 1.96797e-014 -6.52014e-014
lhumerus -48.2348 -7.99385 6.96042
lradius 21.8562
lwrist -1.60361
lhand -27.6577 24.5917
lfingers 7.12502
lthumb -1.05531 54.5688
rfemur -19.9536 -213.973 -0.315881
rtibia 29.7811
rfoot -33.8415 -57.0969
rtoes 9.79112
lfemur -13.7273 -31.4483 -3.06703
ltibia 27.9883
lfoot -17.5049 6.92291
ltoes -9.2183
268
root 7.74808 18.8978 -10.8191 371.342 -10.298 361.169
lowerback 3.91449 6.46522 -5.16474
upperback -1.42736 8.15406 -5.27858
thorax -3.61069 4.10774 -3.1812
lowerneck -20.5834 -4.92937 -15.1687
upperneck 15.7734 -6.70603 21.3024
head 9.75176 -1.89808 9.3162
rclavicle 4.49253e-014 -2.70347e-014
rhumerus -5.22627 -29.8248 -11.4157
rradius 29.8013
rwrist 38.2758
rhand -27.2404 -14.195
rfingers 7.12502
rthumb -0.652263 -44.1737
lclavicle 4.49253e-014 -2.70347e-014
lhumerus -47.6695 -8.22335 8.34137
lradius 22.122
lwrist -1.97742
lhand -27.5279 24.0661
lfingers 7.12502
lthumb -0.929973 54.0438
rfemur -17.5927 -218.723 1.12485
rtibia 28.5631
rfoot -42.6528 -57.1513
rtoes 8.8545
lfemur -16.6322 -30.2879 -2.13588
ltibia 27.5365
lfoot -18.7163 4.2605
ltoes -10.2746
269
root 7.78392 18.9713 -10.8303 372.305 -11.0228 360.817
lowerback 4.52982 6.21661 -4.72053
upperback -1.28817 7.81215 -5.03794
thorax -3.78795 3.92917 -3.20952
lowerneck -20.8574 -5.30053 -15.4696
upperneck 15.1433 -7.06098 21.5121
head 9.68931 -2.06061 9.36623
rclavicle 4.79071e-014 -1.98785e-014
rhumerus -6.29043 -30.8173 -10.3831
rradius 29.4539
rwrist 39.1019
rhand -27.7646 -13.7833
rfingers 7.12502
rthumb -1.15859 -43.7599
lclavicle 4.79071e-014 -1.98785e-014
lhumerus -47.0595 -8.61861 9.67153
lradius 22.1867
lwrist -2.26526
lhand -27.1679 23.2065
lfingers 7.12502
lthumb -0.582287 53.1854
rfemur -15.2293 -223.682 2.45559
rtibia 27.4846
rfoot -51.8411 -56.3913
rtoes 7.83959
lfemur -19.4479 -28.5309 -1.98453
ltibia 27.3345
lfoot -20.11 1.07578
ltoes -11.2145
270
root 7.82316 19.0532 -10.8375 373.212 -11.7462 360.338
lowerback 5.37129 6.05127 -4.49092
upperback -1.24207 7.56043 -4.50177
thorax -4.25839 3.80206 -2.85986
lowerneck -20.878 -5.73339 -16.1824
upperneck 14.5459 -7.42771 21.8042
head 9.61593 -2.25908 9.52421
rclavicle 1.43125e-014 1.59028e-014
rhumerus -7.30609 -31.2937 -9.09394
rradius 29.0805
rwrist 39.7532
rhand -28.2768 -15.3993
rfingers 7.12502
rthumb -1.65327 -45.3726
lclavicle 1.43125e-014 1.59028e-014
lhumerus -46.7141 -9.39417 11.3681
lradius 22.2402
lwrist -3.14317
lhand -26.6367 22.7925
lfingers 7.12502
lthumb -0.0691659 52.7723
rfemur -12.6315 -229.312 4.49456
rtibia 26.6563
rfoot -62.4391 -54.2571
rtoes 2.77878
lfemur -22.2686 -26.4686 -2.00694
ltibia 27.3859
lfoot -21.2976 -2.14333
ltoes -12.1763
271
root 7.86392 19.1356 -10.838 374.06 -12.4957 360.219
lowerback 5.96061 5.81589 -4.32643
upperback -0.991548 7.22708 -4.44692
thorax -4.31746 3.62997 -2.9088
lowerneck -21.363 -6.17409 -16.1263
upperneck 14.0932 -8.00686 22.1037
head 9.70183 -2.48137 9.51906
rclavicle 8.80616e-014 -7.23576e-014
rhumerus -8.41552 -32.8062 -8.31302
rradius 28.4718
rwrist 40.7764
rhand -28.8404 -14.5078
rfingers 7.12502
rthumb -2.19756 -44.4762
lclavicle 8.80616e-014 -7.23576e-014
lhumerus -45.6037 -9.36205 11.6137
lradius 22.3388
lwrist -1.24393
lhand -26.0793 21.5252
lfingers 7.12502
lthumb 0.469133 51.5044
rfemur -9.59859 -237.385 7.05423
rtibia 26.156
rfoot -74.7122 -51.0549
rtoes -1.77063
lfemur -25.1472 -24.2729 -2.66061
ltibia 27.5712
lfoot -22.1385 -5.27203
ltoes -12.8161
